<?xml version="1.0" encoding="UTF-8"?>
<!DOCTYPE svg PUBLIC "-//W3C//DTD SVG 1.1//EN" "http://www.w3.org/Graphics/SVG/1.1/DTD/svg11.dtd">
<!-- Creator: CorelDRAW 2020 (64-Bit) -->
<svg xmlns="http://www.w3.org/2000/svg" xml:space="preserve" width="96.6597mm" height="12.4816mm" version="1.1" style="shape-rendering:geometricPrecision; text-rendering:geometricPrecision; image-rendering:optimizeQuality; fill-rule:evenodd; clip-rule:evenodd"
viewBox="0 0 272.97 35.25"
 xmlns:xlink="http://www.w3.org/1999/xlink"
 xmlns:xodm="http://www.corel.com/coreldraw/odm/2003">
 <defs>
  <style type="text/css">
   <![CDATA[
    .str0 {stroke:#373435;stroke-width:0.56;stroke-miterlimit:22.9256}
    .fil3 {fill:#FEFEFE}
    .fil2 {fill:#F58634}
    .fil1 {fill:#201E1E}
    .fil4 {fill:#4B4B4D;fill-rule:nonzero}
    .fil0 {fill:#666666;fill-rule:nonzero}
   ]]>
  </style>
 </defs>
 <g id="Capa_x0020_1">
  <metadata id="CorelCorpID_0Corel-Layer"/>
  <g id="_1445790777648">
   <path class="fil0" d="M10.48 19.01c0,1.18 -0.15,2.21 -0.45,3.09 -0.3,0.88 -0.74,1.61 -1.32,2.19 -0.58,0.58 -1.29,1.01 -2.13,1.3 -0.84,0.29 -1.85,0.43 -3.01,0.43l-2.88 0c-0.16,0 -0.32,-0.05 -0.46,-0.16 -0.14,-0.11 -0.22,-0.3 -0.22,-0.57l0 -12.15c0,-0.27 0.07,-0.46 0.22,-0.57 0.14,-0.11 0.3,-0.16 0.46,-0.16l3.08 0c1.18,0 2.18,0.15 2.99,0.46 0.81,0.31 1.49,0.75 2.05,1.32 0.55,0.57 0.97,1.26 1.25,2.08 0.28,0.81 0.43,1.73 0.43,2.76zm-1.9 0.08c0,-0.74 -0.09,-1.42 -0.27,-2.06 -0.18,-0.64 -0.47,-1.19 -0.86,-1.65 -0.39,-0.46 -0.88,-0.82 -1.48,-1.09 -0.6,-0.26 -1.37,-0.39 -2.31,-0.39l-1.85 0 0 10.61 1.86 0c0.87,0 1.61,-0.11 2.21,-0.33 0.6,-0.22 1.1,-0.55 1.5,-1 0.4,-0.45 0.7,-1.01 0.9,-1.69 0.2,-0.68 0.3,-1.48 0.3,-2.41zm12.55 1.52c0,0.27 -0.07,0.47 -0.2,0.59 -0.14,0.11 -0.3,0.17 -0.47,0.17l-6.22 0c0,0.53 0.05,1 0.16,1.42 0.1,0.42 0.28,0.79 0.53,1.09 0.24,0.3 0.56,0.53 0.96,0.69 0.4,0.16 0.88,0.24 1.44,0.24 0.45,0 0.85,-0.04 1.2,-0.11 0.35,-0.07 0.66,-0.15 0.91,-0.24 0.26,-0.09 0.47,-0.17 0.63,-0.24 0.17,-0.08 0.29,-0.11 0.37,-0.11 0.05,0 0.09,0.01 0.13,0.04 0.04,0.03 0.07,0.06 0.09,0.11 0.02,0.05 0.04,0.11 0.05,0.2 0.01,0.09 0.01,0.19 0.01,0.32 0,0.09 -0,0.17 -0.01,0.24 -0.01,0.06 -0.01,0.13 -0.03,0.18 -0.01,0.05 -0.03,0.1 -0.05,0.14 -0.02,0.04 -0.05,0.08 -0.09,0.12 -0.04,0.04 -0.15,0.1 -0.34,0.19 -0.19,0.09 -0.43,0.17 -0.74,0.26 -0.3,0.08 -0.65,0.16 -1.05,0.22 -0.4,0.07 -0.82,0.1 -1.27,0.1 -0.78,0 -1.46,-0.11 -2.04,-0.33 -0.59,-0.22 -1.08,-0.54 -1.48,-0.97 -0.4,-0.43 -0.7,-0.97 -0.9,-1.61 -0.2,-0.64 -0.31,-1.39 -0.31,-2.25 0,-0.81 0.1,-1.54 0.32,-2.2 0.21,-0.65 0.51,-1.2 0.91,-1.65 0.4,-0.45 0.88,-0.8 1.44,-1.04 0.56,-0.24 1.19,-0.36 1.88,-0.36 0.74,0 1.38,0.12 1.9,0.36 0.52,0.24 0.95,0.56 1.29,0.96 0.33,0.4 0.58,0.88 0.74,1.42 0.16,0.54 0.24,1.12 0.24,1.74l0 0.32zm-1.75 -0.51c0.02,-0.91 -0.18,-1.63 -0.61,-2.15 -0.43,-0.52 -1.06,-0.78 -1.89,-0.78 -0.43,0 -0.81,0.08 -1.13,0.24 -0.32,0.16 -0.59,0.38 -0.81,0.65 -0.22,0.27 -0.39,0.58 -0.51,0.93 -0.12,0.36 -0.19,0.73 -0.2,1.11l5.15 0zm10.36 3.08c0,0.48 -0.09,0.92 -0.27,1.3 -0.18,0.38 -0.43,0.7 -0.76,0.96 -0.33,0.26 -0.72,0.46 -1.18,0.59 -0.46,0.13 -0.96,0.2 -1.51,0.2 -0.34,0 -0.66,-0.03 -0.96,-0.08 -0.31,-0.05 -0.58,-0.11 -0.82,-0.2 -0.24,-0.08 -0.45,-0.16 -0.61,-0.25 -0.17,-0.09 -0.29,-0.17 -0.37,-0.23 -0.08,-0.07 -0.14,-0.17 -0.17,-0.3 -0.04,-0.13 -0.05,-0.3 -0.05,-0.52 0,-0.13 0.01,-0.24 0.02,-0.33 0.01,-0.09 0.03,-0.17 0.05,-0.22 0.02,-0.06 0.05,-0.1 0.09,-0.12 0.04,-0.02 0.08,-0.04 0.13,-0.04 0.08,0 0.19,0.05 0.34,0.14 0.15,0.09 0.34,0.2 0.56,0.31 0.22,0.11 0.48,0.22 0.78,0.31 0.3,0.1 0.65,0.14 1.04,0.14 0.29,0 0.56,-0.03 0.8,-0.1 0.24,-0.06 0.45,-0.15 0.62,-0.28 0.18,-0.12 0.31,-0.28 0.41,-0.47 0.09,-0.19 0.14,-0.42 0.14,-0.68 0,-0.27 -0.07,-0.49 -0.21,-0.67 -0.14,-0.18 -0.32,-0.35 -0.54,-0.48 -0.23,-0.14 -0.48,-0.27 -0.76,-0.37 -0.28,-0.11 -0.57,-0.22 -0.87,-0.34 -0.29,-0.12 -0.59,-0.25 -0.87,-0.41 -0.28,-0.15 -0.54,-0.33 -0.76,-0.55 -0.22,-0.22 -0.4,-0.48 -0.54,-0.78 -0.14,-0.3 -0.2,-0.66 -0.2,-1.09 0,-0.37 0.07,-0.73 0.22,-1.07 0.14,-0.34 0.36,-0.64 0.65,-0.89 0.29,-0.26 0.65,-0.46 1.08,-0.62 0.43,-0.15 0.93,-0.23 1.51,-0.23 0.25,0 0.5,0.02 0.76,0.06 0.25,0.04 0.48,0.1 0.68,0.17 0.2,0.06 0.38,0.14 0.52,0.21 0.14,0.08 0.26,0.14 0.33,0.2 0.08,0.06 0.12,0.11 0.15,0.15 0.03,0.04 0.04,0.09 0.05,0.14 0.01,0.05 0.02,0.11 0.03,0.19 0.01,0.08 0.01,0.17 0.01,0.28 0,0.12 -0,0.22 -0.01,0.31 -0.01,0.09 -0.03,0.16 -0.05,0.21 -0.03,0.06 -0.05,0.1 -0.09,0.12 -0.04,0.03 -0.08,0.04 -0.11,0.04 -0.06,0 -0.15,-0.04 -0.28,-0.12 -0.12,-0.08 -0.27,-0.16 -0.46,-0.25 -0.19,-0.09 -0.41,-0.17 -0.67,-0.25 -0.26,-0.08 -0.55,-0.12 -0.88,-0.12 -0.29,0 -0.56,0.03 -0.78,0.1 -0.23,0.06 -0.41,0.16 -0.55,0.28 -0.14,0.12 -0.26,0.27 -0.33,0.43 -0.08,0.17 -0.11,0.35 -0.11,0.54 0,0.27 0.07,0.5 0.21,0.69 0.14,0.19 0.32,0.35 0.55,0.49 0.22,0.14 0.48,0.27 0.77,0.38 0.29,0.11 0.58,0.23 0.88,0.35 0.3,0.12 0.59,0.25 0.88,0.4 0.29,0.15 0.55,0.33 0.77,0.54 0.23,0.21 0.41,0.46 0.54,0.76 0.14,0.29 0.2,0.65 0.2,1.05zm9.62 2.6c0,0.08 -0.03,0.15 -0.08,0.19 -0.06,0.04 -0.13,0.07 -0.23,0.09 -0.1,0.02 -0.24,0.03 -0.43,0.03 -0.18,0 -0.33,-0.01 -0.43,-0.03 -0.11,-0.02 -0.19,-0.05 -0.24,-0.09 -0.05,-0.04 -0.08,-0.1 -0.08,-0.19l0 -0.95c-0.41,0.44 -0.87,0.79 -1.38,1.03 -0.51,0.24 -1.05,0.36 -1.62,0.36 -0.5,0 -0.95,-0.06 -1.35,-0.19 -0.4,-0.13 -0.75,-0.32 -1.03,-0.56 -0.28,-0.24 -0.51,-0.55 -0.67,-0.91 -0.16,-0.36 -0.24,-0.77 -0.24,-1.22 0,-0.54 0.11,-1 0.33,-1.39 0.22,-0.4 0.53,-0.72 0.94,-0.98 0.41,-0.26 0.91,-0.46 1.49,-0.59 0.59,-0.13 1.25,-0.19 1.99,-0.19l1.31 0 0 -0.74c0,-0.36 -0.04,-0.69 -0.11,-0.97 -0.08,-0.28 -0.2,-0.51 -0.37,-0.7 -0.17,-0.19 -0.4,-0.33 -0.67,-0.42 -0.27,-0.1 -0.61,-0.14 -1.01,-0.14 -0.43,0 -0.81,0.05 -1.15,0.15 -0.34,0.1 -0.64,0.22 -0.89,0.34 -0.26,0.13 -0.47,0.24 -0.64,0.34 -0.17,0.1 -0.3,0.15 -0.38,0.15 -0.06,0 -0.11,-0.01 -0.15,-0.04 -0.04,-0.03 -0.08,-0.07 -0.11,-0.13 -0.03,-0.05 -0.05,-0.13 -0.07,-0.21 -0.01,-0.09 -0.02,-0.18 -0.02,-0.29 0,-0.17 0.01,-0.31 0.04,-0.41 0.03,-0.1 0.09,-0.2 0.18,-0.29 0.09,-0.09 0.26,-0.2 0.49,-0.32 0.23,-0.12 0.5,-0.24 0.8,-0.34 0.3,-0.1 0.63,-0.19 0.99,-0.26 0.36,-0.07 0.72,-0.1 1.08,-0.1 0.68,0 1.26,0.08 1.74,0.23 0.48,0.15 0.86,0.38 1.16,0.68 0.29,0.3 0.51,0.67 0.64,1.11 0.13,0.44 0.2,0.96 0.2,1.55l0 6.4zm-1.72 -4.34l-1.48 0c-0.47,0 -0.89,0.04 -1.24,0.12 -0.35,0.08 -0.64,0.2 -0.87,0.36 -0.23,0.16 -0.4,0.34 -0.51,0.57 -0.11,0.22 -0.16,0.48 -0.16,0.77 0,0.49 0.15,0.88 0.47,1.17 0.31,0.29 0.75,0.44 1.31,0.44 0.45,0 0.88,-0.12 1.26,-0.35 0.39,-0.23 0.8,-0.59 1.23,-1.06l0 -2.02zm10.46 -4.53c0,0.15 -0,0.28 -0.01,0.39 -0.01,0.1 -0.02,0.19 -0.04,0.25 -0.02,0.06 -0.05,0.1 -0.08,0.14 -0.03,0.03 -0.07,0.05 -0.13,0.05 -0.06,0 -0.13,-0.01 -0.2,-0.05 -0.08,-0.03 -0.17,-0.06 -0.27,-0.09 -0.1,-0.03 -0.22,-0.06 -0.34,-0.09 -0.13,-0.03 -0.26,-0.04 -0.41,-0.04 -0.18,0 -0.35,0.04 -0.52,0.1 -0.17,0.07 -0.34,0.19 -0.53,0.35 -0.19,0.16 -0.38,0.38 -0.59,0.64 -0.2,0.27 -0.43,0.6 -0.67,0.98l0 6.23c0,0.06 -0.01,0.1 -0.04,0.14 -0.03,0.04 -0.07,0.07 -0.14,0.1 -0.06,0.03 -0.15,0.05 -0.27,0.06 -0.11,0.01 -0.26,0.02 -0.43,0.02 -0.17,0 -0.31,-0.01 -0.42,-0.02 -0.11,-0.01 -0.21,-0.04 -0.27,-0.06 -0.07,-0.03 -0.11,-0.06 -0.14,-0.1 -0.03,-0.04 -0.04,-0.09 -0.04,-0.14l0 -9.48c0,-0.06 0.01,-0.1 0.03,-0.14 0.02,-0.04 0.06,-0.07 0.13,-0.1 0.06,-0.03 0.14,-0.05 0.24,-0.06 0.1,-0.01 0.23,-0.01 0.39,-0.01 0.15,0 0.28,0 0.38,0.01 0.1,0.01 0.18,0.03 0.24,0.06 0.05,0.03 0.1,0.07 0.12,0.1 0.02,0.04 0.04,0.09 0.04,0.14l0 1.38c0.26,-0.38 0.5,-0.69 0.73,-0.93 0.23,-0.24 0.45,-0.43 0.65,-0.56 0.2,-0.14 0.41,-0.23 0.6,-0.28 0.2,-0.05 0.4,-0.08 0.61,-0.08 0.09,0 0.19,0 0.31,0.01 0.12,0.01 0.24,0.03 0.36,0.06 0.13,0.03 0.24,0.06 0.34,0.1 0.1,0.04 0.17,0.07 0.22,0.1 0.04,0.04 0.07,0.07 0.08,0.1 0.01,0.03 0.03,0.07 0.04,0.12 0.01,0.05 0.02,0.12 0.02,0.22 0,0.1 0,0.22 0,0.38zm7.52 0c0,0.15 -0,0.28 -0.01,0.39 -0.01,0.1 -0.02,0.19 -0.04,0.25 -0.02,0.06 -0.05,0.1 -0.08,0.14 -0.03,0.03 -0.07,0.05 -0.13,0.05 -0.06,0 -0.13,-0.01 -0.2,-0.05 -0.08,-0.03 -0.17,-0.06 -0.27,-0.09 -0.1,-0.03 -0.22,-0.06 -0.34,-0.09 -0.13,-0.03 -0.26,-0.04 -0.41,-0.04 -0.18,0 -0.35,0.04 -0.52,0.1 -0.17,0.07 -0.34,0.19 -0.53,0.35 -0.19,0.16 -0.38,0.38 -0.59,0.64 -0.2,0.27 -0.43,0.6 -0.67,0.98l0 6.23c0,0.06 -0.01,0.1 -0.04,0.14 -0.03,0.04 -0.07,0.07 -0.14,0.1 -0.06,0.03 -0.15,0.05 -0.27,0.06 -0.11,0.01 -0.26,0.02 -0.43,0.02 -0.17,0 -0.31,-0.01 -0.42,-0.02 -0.11,-0.01 -0.2,-0.04 -0.27,-0.06 -0.07,-0.03 -0.11,-0.06 -0.14,-0.1 -0.03,-0.04 -0.04,-0.09 -0.04,-0.14l0 -9.48c0,-0.06 0.01,-0.1 0.03,-0.14 0.02,-0.04 0.06,-0.07 0.13,-0.1 0.06,-0.03 0.14,-0.05 0.24,-0.06 0.1,-0.01 0.23,-0.01 0.39,-0.01 0.15,0 0.28,0 0.38,0.01 0.1,0.01 0.18,0.03 0.24,0.06 0.05,0.03 0.1,0.07 0.12,0.1 0.02,0.04 0.04,0.09 0.04,0.14l0 1.38c0.26,-0.38 0.5,-0.69 0.73,-0.93 0.23,-0.24 0.45,-0.43 0.65,-0.56 0.2,-0.14 0.41,-0.23 0.6,-0.28 0.2,-0.05 0.4,-0.08 0.61,-0.08 0.09,0 0.19,0 0.31,0.01 0.12,0.01 0.24,0.03 0.36,0.06 0.13,0.03 0.24,0.06 0.34,0.1 0.1,0.04 0.17,0.07 0.22,0.1 0.04,0.04 0.07,0.07 0.08,0.1 0.01,0.03 0.03,0.07 0.04,0.12 0.01,0.05 0.02,0.12 0.02,0.22 0,0.1 0,0.22 0,0.38zm10.42 4.01c0,0.77 -0.1,1.48 -0.3,2.13 -0.2,0.65 -0.51,1.21 -0.91,1.68 -0.4,0.47 -0.91,0.84 -1.51,1.1 -0.61,0.26 -1.31,0.4 -2.11,0.4 -0.78,0 -1.46,-0.12 -2.04,-0.35 -0.58,-0.23 -1.06,-0.57 -1.44,-1.01 -0.38,-0.44 -0.67,-0.98 -0.86,-1.61 -0.19,-0.63 -0.28,-1.35 -0.28,-2.15 0,-0.77 0.1,-1.48 0.3,-2.13 0.2,-0.65 0.5,-1.21 0.91,-1.68 0.4,-0.47 0.91,-0.83 1.51,-1.1 0.6,-0.26 1.31,-0.39 2.11,-0.39 0.78,0 1.46,0.11 2.04,0.35 0.58,0.23 1.06,0.57 1.44,1.01 0.38,0.44 0.68,0.98 0.87,1.61 0.19,0.63 0.29,1.34 0.29,2.14zm-1.81 0.11c0,-0.51 -0.05,-1 -0.14,-1.46 -0.09,-0.46 -0.25,-0.86 -0.47,-1.2 -0.22,-0.35 -0.51,-0.62 -0.89,-0.82 -0.37,-0.2 -0.84,-0.3 -1.39,-0.3 -0.51,0 -0.96,0.09 -1.33,0.27 -0.37,0.18 -0.67,0.44 -0.91,0.78 -0.24,0.33 -0.42,0.73 -0.53,1.19 -0.12,0.46 -0.18,0.96 -0.18,1.5 0,0.52 0.05,1.01 0.14,1.47 0.09,0.46 0.25,0.86 0.47,1.2 0.22,0.34 0.52,0.61 0.89,0.81 0.37,0.2 0.84,0.3 1.4,0.3 0.51,0 0.94,-0.09 1.32,-0.27 0.37,-0.18 0.68,-0.44 0.92,-0.77 0.24,-0.33 0.42,-0.73 0.53,-1.18 0.11,-0.46 0.17,-0.96 0.17,-1.5zm6.13 4.74c0,0.06 -0.01,0.1 -0.04,0.14 -0.03,0.04 -0.07,0.07 -0.14,0.1 -0.06,0.03 -0.15,0.05 -0.27,0.06 -0.11,0.01 -0.26,0.02 -0.43,0.02 -0.17,0 -0.31,-0.01 -0.42,-0.02 -0.11,-0.01 -0.21,-0.04 -0.27,-0.06 -0.07,-0.03 -0.11,-0.06 -0.14,-0.1 -0.03,-0.04 -0.04,-0.09 -0.04,-0.14l0 -14.06c0,-0.06 0.01,-0.11 0.04,-0.15 0.03,-0.04 0.07,-0.08 0.14,-0.11 0.06,-0.03 0.15,-0.05 0.27,-0.06 0.11,-0.01 0.25,-0.02 0.42,-0.02 0.18,0 0.32,0.01 0.43,0.02 0.11,0.01 0.2,0.04 0.27,0.06 0.06,0.03 0.11,0.06 0.14,0.11 0.03,0.04 0.04,0.09 0.04,0.15l0 14.06zm4.95 0c0,0.06 -0.01,0.1 -0.04,0.14 -0.03,0.04 -0.07,0.07 -0.14,0.1 -0.06,0.03 -0.15,0.05 -0.27,0.06 -0.11,0.01 -0.26,0.02 -0.43,0.02 -0.17,0 -0.31,-0.01 -0.42,-0.02 -0.11,-0.01 -0.21,-0.04 -0.27,-0.06 -0.07,-0.03 -0.11,-0.06 -0.14,-0.1 -0.03,-0.04 -0.04,-0.09 -0.04,-0.14l0 -14.06c0,-0.06 0.01,-0.11 0.04,-0.15 0.03,-0.04 0.07,-0.08 0.14,-0.11 0.06,-0.03 0.15,-0.05 0.27,-0.06 0.11,-0.01 0.25,-0.02 0.42,-0.02 0.18,0 0.32,0.01 0.43,0.02 0.11,0.01 0.2,0.04 0.27,0.06 0.06,0.03 0.11,0.06 0.14,0.11 0.03,0.04 0.04,0.09 0.04,0.15l0 14.06zm10.34 0.01c0,0.08 -0.03,0.15 -0.08,0.19 -0.06,0.04 -0.13,0.07 -0.23,0.09 -0.1,0.02 -0.24,0.03 -0.43,0.03 -0.18,0 -0.33,-0.01 -0.43,-0.03 -0.11,-0.02 -0.19,-0.05 -0.24,-0.09 -0.05,-0.04 -0.08,-0.1 -0.08,-0.19l0 -0.95c-0.41,0.44 -0.87,0.79 -1.38,1.03 -0.51,0.24 -1.05,0.36 -1.62,0.36 -0.5,0 -0.95,-0.06 -1.35,-0.19 -0.4,-0.13 -0.75,-0.32 -1.03,-0.56 -0.28,-0.24 -0.51,-0.55 -0.66,-0.91 -0.16,-0.36 -0.24,-0.77 -0.24,-1.22 0,-0.54 0.11,-1 0.33,-1.39 0.22,-0.4 0.53,-0.72 0.94,-0.98 0.41,-0.26 0.91,-0.46 1.5,-0.59 0.59,-0.13 1.25,-0.19 1.99,-0.19l1.31 0 0 -0.74c0,-0.36 -0.04,-0.69 -0.11,-0.97 -0.08,-0.28 -0.2,-0.51 -0.37,-0.7 -0.17,-0.19 -0.4,-0.33 -0.67,-0.42 -0.27,-0.1 -0.61,-0.14 -1.01,-0.14 -0.43,0 -0.81,0.05 -1.15,0.15 -0.34,0.1 -0.64,0.22 -0.89,0.34 -0.26,0.13 -0.47,0.24 -0.64,0.34 -0.17,0.1 -0.3,0.15 -0.38,0.15 -0.06,0 -0.11,-0.01 -0.15,-0.04 -0.04,-0.03 -0.08,-0.07 -0.11,-0.13 -0.03,-0.05 -0.05,-0.13 -0.07,-0.21 -0.01,-0.09 -0.02,-0.18 -0.02,-0.29 0,-0.17 0.01,-0.31 0.04,-0.41 0.03,-0.1 0.09,-0.2 0.18,-0.29 0.09,-0.09 0.26,-0.2 0.49,-0.32 0.23,-0.12 0.5,-0.24 0.8,-0.34 0.3,-0.1 0.63,-0.19 0.99,-0.26 0.36,-0.07 0.72,-0.1 1.08,-0.1 0.68,0 1.26,0.08 1.74,0.23 0.48,0.15 0.86,0.38 1.16,0.68 0.29,0.3 0.51,0.67 0.64,1.11 0.13,0.44 0.2,0.96 0.2,1.55l0 6.4zm-1.72 -4.34l-1.48 0c-0.47,0 -0.89,0.04 -1.24,0.12 -0.35,0.08 -0.64,0.2 -0.87,0.36 -0.23,0.16 -0.4,0.34 -0.51,0.57 -0.11,0.22 -0.16,0.48 -0.16,0.77 0,0.49 0.15,0.88 0.47,1.17 0.31,0.29 0.75,0.44 1.31,0.44 0.45,0 0.88,-0.12 1.26,-0.35 0.39,-0.23 0.8,-0.59 1.23,-1.06l0 -2.02zm13.02 4.33c0,0.06 -0.01,0.1 -0.04,0.15 -0.03,0.04 -0.07,0.08 -0.13,0.1 -0.06,0.02 -0.14,0.04 -0.24,0.06 -0.1,0.01 -0.22,0.02 -0.36,0.02 -0.15,0 -0.27,-0.01 -0.37,-0.02 -0.1,-0.01 -0.18,-0.03 -0.24,-0.06 -0.06,-0.03 -0.11,-0.06 -0.14,-0.1 -0.03,-0.04 -0.04,-0.09 -0.04,-0.15l0 -1.26c-0.5,0.54 -1.02,0.96 -1.55,1.26 -0.54,0.3 -1.12,0.45 -1.76,0.45 -0.69,0 -1.29,-0.14 -1.78,-0.41 -0.49,-0.27 -0.89,-0.64 -1.2,-1.1 -0.3,-0.46 -0.52,-1 -0.66,-1.62 -0.14,-0.62 -0.21,-1.28 -0.21,-1.96 0,-0.82 0.09,-1.55 0.26,-2.21 0.18,-0.66 0.43,-1.22 0.78,-1.68 0.34,-0.46 0.77,-0.82 1.28,-1.07 0.51,-0.25 1.09,-0.37 1.76,-0.37 0.55,0 1.06,0.12 1.52,0.36 0.46,0.24 0.91,0.6 1.36,1.07l0 -5.49c0,-0.05 0.01,-0.1 0.04,-0.14 0.02,-0.05 0.07,-0.08 0.14,-0.1 0.07,-0.03 0.16,-0.05 0.27,-0.06 0.11,-0.02 0.25,-0.03 0.42,-0.03 0.18,0 0.32,0.01 0.43,0.03 0.11,0.02 0.2,0.04 0.26,0.06 0.06,0.02 0.11,0.06 0.14,0.1 0.03,0.05 0.05,0.09 0.05,0.14l0 14.02zm-1.75 -6.67c-0.47,-0.59 -0.92,-1.03 -1.36,-1.34 -0.44,-0.31 -0.89,-0.46 -1.37,-0.46 -0.44,0 -0.82,0.1 -1.12,0.32 -0.31,0.21 -0.56,0.49 -0.75,0.83 -0.19,0.34 -0.33,0.73 -0.42,1.17 -0.09,0.43 -0.13,0.88 -0.13,1.33 0,0.48 0.04,0.95 0.11,1.4 0.07,0.46 0.2,0.86 0.38,1.22 0.18,0.36 0.42,0.64 0.73,0.86 0.3,0.21 0.68,0.32 1.13,0.32 0.23,0 0.45,-0.03 0.67,-0.09 0.21,-0.06 0.43,-0.17 0.65,-0.32 0.22,-0.15 0.46,-0.34 0.7,-0.57 0.24,-0.23 0.5,-0.52 0.78,-0.87l0 -3.79zm13.76 1.82c0,0.77 -0.1,1.48 -0.31,2.13 -0.2,0.65 -0.51,1.21 -0.91,1.68 -0.4,0.47 -0.91,0.84 -1.51,1.1 -0.61,0.26 -1.31,0.4 -2.11,0.4 -0.78,0 -1.46,-0.12 -2.04,-0.35 -0.58,-0.23 -1.06,-0.57 -1.44,-1.01 -0.38,-0.44 -0.67,-0.98 -0.86,-1.61 -0.19,-0.63 -0.28,-1.35 -0.28,-2.15 0,-0.77 0.1,-1.48 0.3,-2.13 0.2,-0.65 0.5,-1.21 0.91,-1.68 0.4,-0.47 0.91,-0.83 1.51,-1.1 0.6,-0.26 1.31,-0.39 2.11,-0.39 0.78,0 1.46,0.11 2.04,0.35 0.58,0.23 1.06,0.57 1.44,1.01 0.38,0.44 0.68,0.98 0.87,1.61 0.19,0.63 0.29,1.34 0.29,2.14zm-1.81 0.11c0,-0.51 -0.05,-1 -0.14,-1.46 -0.09,-0.46 -0.25,-0.86 -0.47,-1.2 -0.22,-0.35 -0.51,-0.62 -0.89,-0.82 -0.37,-0.2 -0.84,-0.3 -1.39,-0.3 -0.51,0 -0.96,0.09 -1.33,0.27 -0.37,0.18 -0.67,0.44 -0.91,0.78 -0.24,0.33 -0.42,0.73 -0.53,1.19 -0.12,0.46 -0.18,0.96 -0.18,1.5 0,0.52 0.05,1.01 0.14,1.47 0.09,0.46 0.25,0.86 0.47,1.2 0.22,0.34 0.52,0.61 0.89,0.81 0.37,0.2 0.84,0.3 1.4,0.3 0.51,0 0.94,-0.09 1.32,-0.27 0.37,-0.18 0.68,-0.44 0.92,-0.77 0.24,-0.33 0.42,-0.73 0.53,-1.18 0.11,-0.46 0.17,-0.96 0.17,-1.5zm17.97 -0.15c0,0.83 -0.09,1.57 -0.27,2.23 -0.18,0.66 -0.44,1.22 -0.79,1.68 -0.34,0.46 -0.78,0.82 -1.29,1.06 -0.51,0.25 -1.1,0.37 -1.75,0.37 -0.28,0 -0.54,-0.03 -0.78,-0.08 -0.24,-0.06 -0.47,-0.14 -0.7,-0.27 -0.23,-0.12 -0.45,-0.27 -0.68,-0.45 -0.23,-0.18 -0.46,-0.4 -0.71,-0.64l0 4.75c0,0.06 -0.01,0.1 -0.04,0.15 -0.03,0.04 -0.07,0.08 -0.14,0.11 -0.06,0.03 -0.15,0.05 -0.27,0.06 -0.11,0.01 -0.26,0.02 -0.43,0.02 -0.17,0 -0.31,-0.01 -0.42,-0.02 -0.11,-0.01 -0.21,-0.04 -0.27,-0.06 -0.07,-0.03 -0.11,-0.06 -0.14,-0.11 -0.03,-0.04 -0.04,-0.09 -0.04,-0.15l0 -13.24c0,-0.06 0.01,-0.11 0.03,-0.15 0.02,-0.04 0.07,-0.07 0.13,-0.1 0.06,-0.03 0.14,-0.05 0.24,-0.06 0.1,-0.01 0.22,-0.01 0.36,-0.01 0.15,0 0.27,0 0.37,0.01 0.09,0.01 0.17,0.03 0.24,0.06 0.06,0.03 0.11,0.07 0.13,0.1 0.02,0.04 0.04,0.09 0.04,0.15l0 1.27c0.29,-0.29 0.56,-0.55 0.83,-0.77 0.27,-0.22 0.54,-0.4 0.81,-0.54 0.27,-0.14 0.55,-0.25 0.83,-0.33 0.28,-0.08 0.58,-0.11 0.9,-0.11 0.69,0 1.27,0.13 1.75,0.4 0.48,0.27 0.88,0.63 1.18,1.1 0.31,0.46 0.53,1 0.67,1.62 0.14,0.61 0.21,1.26 0.21,1.95zm-1.81 0.2c0,-0.48 -0.04,-0.96 -0.11,-1.41 -0.07,-0.45 -0.2,-0.86 -0.38,-1.21 -0.18,-0.35 -0.42,-0.63 -0.72,-0.84 -0.3,-0.21 -0.68,-0.32 -1.13,-0.32 -0.23,0 -0.45,0.03 -0.66,0.1 -0.22,0.07 -0.44,0.17 -0.67,0.32 -0.22,0.14 -0.46,0.33 -0.7,0.57 -0.24,0.24 -0.51,0.53 -0.78,0.87l0 3.77c0.48,0.59 0.93,1.03 1.36,1.34 0.43,0.31 0.88,0.46 1.35,0.46 0.43,0 0.81,-0.1 1.12,-0.32 0.31,-0.21 0.56,-0.49 0.76,-0.84 0.19,-0.35 0.33,-0.74 0.43,-1.18 0.09,-0.43 0.14,-0.88 0.14,-1.32z"/>
   <path class="fil0" d="M136.51 20.91c0,0.77 -0.1,1.48 -0.31,2.13 -0.2,0.65 -0.51,1.21 -0.91,1.68 -0.4,0.47 -0.91,0.84 -1.51,1.1 -0.61,0.26 -1.31,0.4 -2.11,0.4 -0.78,0 -1.46,-0.12 -2.04,-0.35 -0.58,-0.23 -1.06,-0.57 -1.44,-1.01 -0.38,-0.44 -0.67,-0.98 -0.86,-1.61 -0.19,-0.63 -0.28,-1.35 -0.28,-2.15 0,-0.77 0.1,-1.48 0.3,-2.13 0.2,-0.65 0.5,-1.21 0.91,-1.68 0.4,-0.47 0.91,-0.83 1.51,-1.1 0.6,-0.26 1.31,-0.39 2.11,-0.39 0.78,0 1.46,0.11 2.04,0.35 0.58,0.23 1.06,0.57 1.44,1.01 0.38,0.44 0.68,0.98 0.87,1.61 0.19,0.63 0.29,1.34 0.29,2.14zm-1.81 0.11c0,-0.51 -0.05,-1 -0.14,-1.46 -0.09,-0.46 -0.25,-0.86 -0.47,-1.2 -0.22,-0.35 -0.51,-0.62 -0.89,-0.82 -0.37,-0.2 -0.84,-0.3 -1.39,-0.3 -0.51,0 -0.96,0.09 -1.33,0.27 -0.37,0.18 -0.67,0.44 -0.91,0.78 -0.24,0.33 -0.42,0.73 -0.53,1.19 -0.12,0.46 -0.18,0.96 -0.18,1.5 0,0.52 0.05,1.01 0.14,1.47 0.09,0.46 0.25,0.86 0.47,1.2 0.22,0.34 0.52,0.61 0.89,0.81 0.37,0.2 0.84,0.3 1.4,0.3 0.51,0 0.94,-0.09 1.32,-0.27 0.37,-0.18 0.68,-0.44 0.92,-0.77 0.24,-0.33 0.42,-0.73 0.53,-1.18 0.11,-0.46 0.17,-0.96 0.17,-1.5zm9.92 -4.12c0,0.15 -0,0.28 -0.01,0.39 -0.01,0.1 -0.02,0.19 -0.04,0.25 -0.02,0.06 -0.05,0.1 -0.08,0.14 -0.03,0.03 -0.07,0.05 -0.13,0.05 -0.06,0 -0.13,-0.01 -0.2,-0.05 -0.08,-0.03 -0.17,-0.06 -0.27,-0.09 -0.1,-0.03 -0.22,-0.06 -0.34,-0.09 -0.13,-0.03 -0.26,-0.04 -0.41,-0.04 -0.18,0 -0.35,0.04 -0.52,0.1 -0.17,0.07 -0.34,0.19 -0.53,0.35 -0.19,0.16 -0.38,0.38 -0.59,0.64 -0.2,0.27 -0.43,0.6 -0.67,0.98l0 6.23c0,0.06 -0.01,0.1 -0.04,0.14 -0.03,0.04 -0.07,0.07 -0.14,0.1 -0.06,0.03 -0.15,0.05 -0.27,0.06 -0.11,0.01 -0.26,0.02 -0.43,0.02 -0.17,0 -0.31,-0.01 -0.42,-0.02 -0.11,-0.01 -0.2,-0.04 -0.27,-0.06 -0.07,-0.03 -0.11,-0.06 -0.14,-0.1 -0.03,-0.04 -0.04,-0.09 -0.04,-0.14l0 -9.48c0,-0.06 0.01,-0.1 0.03,-0.14 0.02,-0.04 0.06,-0.07 0.13,-0.1 0.06,-0.03 0.14,-0.05 0.24,-0.06 0.1,-0.01 0.23,-0.01 0.39,-0.01 0.15,0 0.28,0 0.38,0.01 0.1,0.01 0.18,0.03 0.24,0.06 0.05,0.03 0.1,0.07 0.12,0.1 0.02,0.04 0.04,0.09 0.04,0.14l0 1.38c0.26,-0.38 0.5,-0.69 0.73,-0.93 0.23,-0.24 0.45,-0.43 0.65,-0.56 0.2,-0.14 0.41,-0.23 0.6,-0.28 0.2,-0.05 0.4,-0.08 0.61,-0.08 0.09,0 0.19,0 0.31,0.01 0.12,0.01 0.24,0.03 0.36,0.06 0.13,0.03 0.24,0.06 0.34,0.1 0.1,0.04 0.17,0.07 0.22,0.1 0.04,0.04 0.07,0.07 0.08,0.1 0.01,0.03 0.03,0.07 0.04,0.12 0.01,0.05 0.02,0.12 0.02,0.22 0,0.1 0,0.22 0,0.38z"/>
  </g>
  <g id="_1445790781680">
   <g>
    <path class="fil1" d="M186.94 0.89c3,-0.51 5.41,-0.35 8.48,0.29 1.72,0.36 1.83,0.91 2.09,1.88 0.89,3.3 0.61,5.81 0.23,9.04 -0.33,2.86 -1.48,1.26 -2,0 -2.26,-5.5 -4.72,-6.83 -9.33,-9.14 -1.23,-0.61 -2.28,-1.6 0.52,-2.07z"/>
    <g>
     <path class="fil2" d="M191.63 24.14c-2.67,2.27 -6.35,3.27 -10.02,2.38 -6.07,-1.48 -9.79,-7.6 -8.31,-13.67 0.48,-1.98 1.46,-3.71 2.77,-5.1 6.09,4.18 11.36,9.52 15.55,16.39z"/>
     <path class="fil1 str0" d="M195.9 31.78c-0.38,0.19 -0.77,0.39 -1.15,0.58 -0.82,0.41 -1.64,0.83 -2.46,1.24 -0.79,-0.95 -1.58,-1.9 -2.36,-2.84 -0.26,0.08 -0.52,0.15 -0.78,0.22 -0.18,1.22 -0.36,2.44 -0.54,3.66 -1.34,0.11 -2.69,0.21 -4.03,0.31 -0.37,-1.18 -0.74,-2.35 -1.1,-3.53 -0.27,-0.02 -0.54,-0.06 -0.8,-0.09 -0.63,1.06 -1.26,2.12 -1.89,3.18 -1.28,-0.41 -2.57,-0.83 -3.85,-1.24 0.11,-1.23 0.21,-2.45 0.32,-3.68 -0.24,-0.13 -0.48,-0.26 -0.71,-0.4 -0.99,0.74 -1.97,1.48 -2.96,2.22 -1.03,-0.87 -2.06,-1.74 -3.09,-2.61 0.57,-1.1 1.13,-2.19 1.7,-3.29 -0.17,-0.21 -0.34,-0.42 -0.51,-0.63 -1.19,0.31 -2.38,0.62 -3.58,0.93 -0.2,-0.38 -0.4,-0.76 -0.59,-1.14 -0.42,-0.82 -0.85,-1.63 -1.27,-2.45 0.94,-0.8 1.88,-1.6 2.82,-2.39 -0.08,-0.26 -0.16,-0.52 -0.23,-0.78 -1.22,-0.17 -2.44,-0.33 -3.66,-0.5 -0.04,-0.43 -0.08,-0.85 -0.11,-1.28 -0.08,-0.92 -0.16,-1.83 -0.25,-2.75 1.17,-0.38 2.34,-0.76 3.52,-1.15 0.02,-0.27 0.05,-0.54 0.08,-0.8 -1.07,-0.62 -2.13,-1.24 -3.2,-1.86 0.4,-1.29 0.8,-2.58 1.2,-3.86 1.23,0.09 2.46,0.18 3.69,0.28 0.12,-0.24 0.25,-0.48 0.39,-0.71 -0.75,-0.98 -1.5,-1.95 -2.25,-2.93 0.86,-1.04 1.72,-2.08 2.58,-3.12 4.27,1.95 9.64,6.13 12.92,9.33 3.41,3.33 6.23,6.69 8,10.21 2.12,4.22 3.11,7.52 4.19,11.89zm-24.83 -30.09c-0.09,0.11 -0.18,0.22 -0.27,0.33 -0.31,0.38 -0.63,0.76 -0.94,1.14 -0.09,0.11 -0.18,0.22 -0.27,0.33 0.73,0.94 1.45,1.89 2.18,2.83 -0.39,0.62 -0.74,1.26 -1.03,1.91 -1.19,-0.09 -2.37,-0.18 -3.56,-0.27 -0.04,0.14 -0.09,0.27 -0.13,0.41 -0.15,0.47 -0.29,0.94 -0.44,1.41 -0.04,0.14 -0.09,0.27 -0.13,0.41 1.03,0.6 2.06,1.2 3.09,1.79 -0.13,0.72 -0.2,1.44 -0.23,2.16 -1.13,0.37 -2.27,0.74 -3.4,1.11 0.01,0.14 0.03,0.29 0.04,0.43 0.04,0.49 0.09,0.98 0.13,1.47 0.01,0.14 0.03,0.29 0.04,0.43 1.18,0.16 2.36,0.32 3.54,0.48 0.15,0.71 0.36,1.4 0.61,2.09 -0.91,0.77 -1.81,1.54 -2.72,2.31 0.07,0.13 0.13,0.26 0.2,0.38 0.23,0.44 0.45,0.87 0.68,1.31 0.07,0.13 0.13,0.26 0.2,0.38 1.15,-0.3 2.3,-0.6 3.46,-0.9 0.41,0.59 0.86,1.16 1.36,1.7 -0.55,1.06 -1.09,2.12 -1.64,3.18 0.11,0.09 0.22,0.19 0.33,0.28 0.38,0.32 0.75,0.63 1.12,0.95 0.11,0.09 0.22,0.19 0.33,0.28 0.95,-0.71 1.91,-1.43 2.86,-2.14 0.61,0.4 1.25,0.75 1.9,1.06 -0.1,1.19 -0.21,2.37 -0.31,3.56 0.14,0.04 0.27,0.09 0.41,0.13 0.47,0.15 0.93,0.3 1.4,0.45 0.14,0.04 0.27,0.09 0.41,0.13 0.61,-1.02 1.22,-2.05 1.83,-3.07 0.71,0.13 1.44,0.22 2.16,0.25 0.36,1.14 0.71,2.27 1.07,3.41 0.14,-0.01 0.29,-0.02 0.43,-0.03 0.49,-0.04 0.98,-0.08 1.47,-0.11 0.14,-0.01 0.29,-0.02 0.43,-0.03 0.18,-1.18 0.35,-2.36 0.53,-3.54 0.71,-0.15 1.41,-0.34 2.09,-0.58 0.76,0.92 1.52,1.83 2.28,2.75 0.13,-0.06 0.26,-0.13 0.38,-0.19 0.44,-0.22 0.88,-0.44 1.31,-0.66 0.13,-0.06 0.26,-0.13 0.38,-0.19 -0.68,-2.76 -0.41,-3.68 -3.69,-3.07 -7.65,1.42 -13.67,-1.3 -16.83,-5.29 -2.79,-3.52 -3.79,-6.72 -1.45,-14.69 1.14,-3.87 2.27,-4.33 -1.61,-6.46zm17.23 17.6c-1.26,1.23 -3.1,1.81 -4.93,1.36 -2.82,-0.69 -4.55,-3.53 -3.86,-6.36 0.26,-1.07 0.83,-1.98 1.59,-2.66 -1.6,-1.4 -3.28,-2.69 -5.03,-3.88 -1.31,1.38 -2.29,3.11 -2.77,5.1 -1.48,6.07 2.24,12.19 8.31,13.67 3.67,0.89 7.35,-0.11 10.02,-2.38 -1.04,-1.71 -2.15,-3.32 -3.32,-4.85z"/>
     <path class="fil3" d="M181.9 15.78c0.4,0.1 0.64,0.5 0.54,0.89 -0.1,0.4 -0.5,0.64 -0.89,0.54 -0.4,-0.1 -0.64,-0.5 -0.54,-0.89 0.1,-0.4 0.5,-0.64 0.89,-0.54zm-2.19 -3.47c0.89,0.22 1.43,1.11 1.22,2 -0.22,0.89 -1.11,1.43 -2,1.22 -0.89,-0.22 -1.43,-1.11 -1.22,-2 0.22,-0.89 1.11,-1.43 2,-1.22z"/>
    </g>
   </g>
   <g>
    <path class="fil4" d="M202.97 14.82c0.27,0.02 0.53,0.04 0.79,0.04 0.26,0 0.51,0.01 0.77,0.01 0.18,0 0.39,-0.01 0.62,-0.03 0.23,-0.02 0.47,-0.06 0.73,-0.13 0.26,-0.06 0.51,-0.15 0.76,-0.27 0.26,-0.12 0.5,-0.27 0.72,-0.46 0.23,-0.19 0.43,-0.42 0.61,-0.69 0.18,-0.27 0.32,-0.6 0.42,-0.98 0.1,-0.38 0.16,-0.81 0.16,-1.31 -0,-0.6 -0.09,-1.12 -0.27,-1.56 -0.18,-0.44 -0.43,-0.81 -0.77,-1.09 -0.33,-0.29 -0.73,-0.51 -1.19,-0.65 -0.46,-0.14 -0.98,-0.21 -1.55,-0.21 -0.33,0 -0.64,0.02 -0.94,0.05 -0.3,0.03 -0.58,0.07 -0.86,0.11l0 7.17zm0.34 -6.91c0.17,-0.04 0.37,-0.07 0.6,-0.09 0.24,-0.03 0.5,-0.04 0.8,-0.04 0.59,0 1.11,0.08 1.55,0.23 0.44,0.15 0.8,0.37 1.09,0.65 0.29,0.28 0.5,0.62 0.64,1.02 0.14,0.4 0.21,0.85 0.21,1.35 0,0.54 -0.08,1.03 -0.23,1.46 -0.15,0.44 -0.38,0.81 -0.68,1.13 -0.3,0.31 -0.68,0.55 -1.15,0.72 -0.46,0.17 -1,0.26 -1.61,0.26 -0.25,0 -0.48,-0 -0.68,-0.02 -0.2,-0.01 -0.38,-0.03 -0.54,-0.06l0 -6.61zm10.17 6.61l-3.28 0 0 -3.39 2.93 0 0 -0.3 -2.93 0 0 -2.99 3.11 0 0 -0.3 -3.44 0 0 7.27 3.62 0 0 -0.3zm1.28 0.3l0.34 0 0 -3.19c0.15,0.03 0.3,0.06 0.45,0.07 0.15,0.01 0.31,0.02 0.48,0.02 0.28,0 0.54,-0.03 0.8,-0.09 0.25,-0.06 0.49,-0.14 0.71,-0.26 0.21,-0.12 0.4,-0.26 0.56,-0.44 0.16,-0.18 0.29,-0.39 0.38,-0.63 0.09,-0.24 0.13,-0.51 0.14,-0.82 0,-0.27 -0.04,-0.52 -0.13,-0.76 -0.09,-0.24 -0.23,-0.45 -0.42,-0.64 -0.19,-0.19 -0.44,-0.33 -0.75,-0.44 -0.31,-0.11 -0.68,-0.16 -1.11,-0.16 -0.28,0 -0.54,0.02 -0.78,0.04 -0.24,0.03 -0.46,0.06 -0.66,0.1l0 7.18zm0.34 -6.94c0.1,-0.02 0.24,-0.04 0.42,-0.07 0.18,-0.02 0.39,-0.04 0.64,-0.04 0.29,-0 0.56,0.03 0.81,0.1 0.25,0.07 0.47,0.17 0.67,0.31 0.19,0.14 0.34,0.33 0.45,0.55 0.11,0.23 0.17,0.5 0.17,0.81 -0,0.41 -0.09,0.75 -0.27,1.03 -0.18,0.28 -0.43,0.5 -0.76,0.64 -0.33,0.15 -0.72,0.22 -1.18,0.22 -0.18,0 -0.35,-0.01 -0.51,-0.03 -0.16,-0.02 -0.3,-0.05 -0.44,-0.09l0 -3.45zm7.21 -0.34l-0.25 0 -2.69 7.27 0.35 0 0.96 -2.65 2.98 0 0.98 2.65 0.34 0 -2.67 -7.27zm-1.53 4.34l0.98 -2.61c0.05,-0.15 0.1,-0.29 0.15,-0.42 0.04,-0.13 0.09,-0.26 0.13,-0.39 0.04,-0.13 0.09,-0.28 0.13,-0.45l0.02 0c0.04,0.14 0.07,0.27 0.11,0.4 0.04,0.13 0.08,0.27 0.13,0.41 0.05,0.14 0.1,0.3 0.16,0.47l0.96 2.59 -2.77 0zm7.76 -0.61c0.29,-0.1 0.55,-0.23 0.76,-0.41 0.22,-0.17 0.38,-0.38 0.5,-0.63 0.12,-0.25 0.18,-0.53 0.18,-0.86 0,-0.17 -0.02,-0.33 -0.06,-0.48 -0.04,-0.16 -0.1,-0.3 -0.17,-0.44 -0.07,-0.13 -0.16,-0.25 -0.26,-0.35 -0.13,-0.14 -0.28,-0.25 -0.46,-0.34 -0.18,-0.09 -0.38,-0.16 -0.62,-0.21 -0.23,-0.04 -0.51,-0.07 -0.81,-0.07 -0.15,0 -0.31,0.01 -0.48,0.02 -0.17,0.01 -0.34,0.03 -0.51,0.05 -0.17,0.02 -0.33,0.05 -0.48,0.08l0 7.17 0.34 0 0 -3.42 1.23 0c0.33,0 0.61,0.06 0.83,0.18 0.22,0.12 0.4,0.3 0.54,0.55 0.14,0.24 0.24,0.54 0.32,0.9 0.06,0.31 0.13,0.59 0.18,0.83 0.06,0.24 0.11,0.45 0.16,0.61 0.05,0.16 0.09,0.28 0.13,0.35l0.36 0c-0.04,-0.07 -0.08,-0.16 -0.11,-0.26 -0.04,-0.1 -0.08,-0.23 -0.12,-0.38 -0.04,-0.15 -0.09,-0.33 -0.14,-0.55 -0.05,-0.21 -0.11,-0.47 -0.17,-0.76 -0.09,-0.42 -0.22,-0.76 -0.41,-1.03 -0.19,-0.27 -0.43,-0.45 -0.73,-0.54l0 -0.02zm-2.07 -0.15l0 -3.22c0.09,-0.03 0.24,-0.05 0.43,-0.08 0.19,-0.03 0.41,-0.04 0.66,-0.04 0.27,-0 0.52,0.03 0.77,0.08 0.25,0.05 0.47,0.15 0.66,0.27 0.19,0.13 0.35,0.3 0.46,0.52 0.11,0.21 0.17,0.48 0.17,0.81 -0,0.25 -0.05,0.48 -0.14,0.68 -0.09,0.21 -0.23,0.38 -0.4,0.53 -0.17,0.15 -0.38,0.26 -0.62,0.34 -0.24,0.08 -0.51,0.12 -0.8,0.12l-1.19 0zm9.09 -3.58l-5.2 0 0 0.3 2.43 0 0 6.98 0.34 0 0 -6.98 2.42 0 0 -0.3zm2.93 0l-0.25 0 -2.69 7.27 0.35 0 0.96 -2.65 2.98 0 0.98 2.65 0.34 0 -2.67 -7.27zm-1.53 4.34l0.98 -2.61c0.05,-0.15 0.1,-0.29 0.15,-0.42 0.04,-0.13 0.09,-0.26 0.13,-0.39 0.04,-0.13 0.09,-0.28 0.13,-0.45l0.02 0c0.04,0.14 0.07,0.27 0.11,0.4 0.04,0.13 0.08,0.27 0.13,0.41 0.05,0.14 0.1,0.3 0.16,0.47l0.96 2.59 -2.77 0zm11.54 -4.34l-0.38 0 -1.75 4.5c-0.13,0.33 -0.24,0.63 -0.34,0.89 -0.1,0.26 -0.19,0.5 -0.28,0.73 -0.08,0.22 -0.15,0.44 -0.22,0.65l-0.02 0c-0.07,-0.22 -0.15,-0.45 -0.24,-0.69 -0.08,-0.24 -0.17,-0.49 -0.27,-0.75 -0.1,-0.27 -0.2,-0.56 -0.32,-0.87l-1.69 -4.46 -0.36 0 -0.53 7.27 0.35 0 0.24 -3.44c0.02,-0.31 0.05,-0.63 0.07,-0.94 0.02,-0.31 0.04,-0.61 0.05,-0.9 0.01,-0.29 0.03,-0.56 0.04,-0.82 0.01,-0.26 0.02,-0.49 0.02,-0.7l0.03 0c0.07,0.26 0.16,0.53 0.25,0.81 0.09,0.28 0.2,0.58 0.32,0.91 0.12,0.33 0.25,0.68 0.4,1.08l1.53 4.03 0.22 0 1.63 -4.13c0.15,-0.37 0.28,-0.71 0.4,-1.02 0.12,-0.31 0.23,-0.6 0.32,-0.88 0.1,-0.27 0.19,-0.53 0.28,-0.79l0.03 0c-0,0.18 0,0.39 0.01,0.64 0.01,0.24 0.02,0.5 0.04,0.79 0.01,0.28 0.03,0.58 0.05,0.89 0.02,0.31 0.04,0.63 0.06,0.94l0.22 3.55 0.34 0 -0.49 -7.27zm5.7 6.98l-3.28 0 0 -3.39 2.93 0 0 -0.3 -2.93 0 0 -2.99 3.11 0 0 -0.3 -3.44 0 0 7.27 3.62 0 0 -0.3zm6.25 -6.98l-0.34 0 0 3.85c0,0.29 0,0.55 0,0.8 0,0.25 0,0.49 0.01,0.72 0,0.23 0.01,0.46 0.02,0.69 0.01,0.23 0.02,0.46 0.04,0.7l-0.02 0.02c-0.11,-0.23 -0.24,-0.45 -0.37,-0.68 -0.13,-0.23 -0.28,-0.47 -0.44,-0.72 -0.16,-0.25 -0.34,-0.53 -0.54,-0.84l-3.01 -4.55 -0.32 0 0 7.27 0.34 0 0 -3.91c0,-0.32 0,-0.6 0,-0.84 -0,-0.24 -0,-0.45 -0,-0.63 -0,-0.18 -0,-0.35 -0.01,-0.49 -0,-0.15 -0.01,-0.29 -0.02,-0.43 -0.01,-0.14 -0.02,-0.28 -0.03,-0.43l0.03 -0.01c0.13,0.24 0.26,0.49 0.41,0.73 0.15,0.25 0.3,0.5 0.47,0.75 0.17,0.26 0.34,0.53 0.52,0.81l2.93 4.45 0.34 0 0 -7.27zm5.95 0l-5.2 0 0 0.3 2.43 0 0 6.98 0.34 0 0 -6.98 2.42 0 0 -0.3zm3.46 -0.11c-0.36,0 -0.7,0.05 -1.02,0.16 -0.32,0.11 -0.62,0.27 -0.88,0.48 -0.27,0.21 -0.5,0.47 -0.69,0.78 -0.2,0.31 -0.35,0.66 -0.45,1.06 -0.11,0.4 -0.16,0.84 -0.16,1.33 0,0.46 0.05,0.89 0.16,1.27 0.1,0.38 0.25,0.72 0.45,1.02 0.19,0.3 0.42,0.55 0.68,0.76 0.26,0.21 0.55,0.36 0.86,0.47 0.31,0.11 0.64,0.16 0.99,0.16 0.32,0 0.64,-0.05 0.95,-0.15 0.31,-0.1 0.6,-0.25 0.87,-0.45 0.27,-0.2 0.51,-0.45 0.71,-0.76 0.21,-0.3 0.37,-0.66 0.48,-1.07 0.12,-0.41 0.18,-0.87 0.18,-1.39 -0,-0.56 -0.08,-1.07 -0.23,-1.53 -0.15,-0.45 -0.37,-0.84 -0.65,-1.16 -0.28,-0.32 -0.61,-0.56 -0.99,-0.73 -0.38,-0.17 -0.8,-0.26 -1.25,-0.26zm-0.01 0.28c0.32,0 0.61,0.05 0.88,0.14 0.26,0.09 0.5,0.23 0.7,0.39 0.21,0.17 0.38,0.36 0.53,0.59 0.15,0.22 0.27,0.46 0.37,0.72 0.1,0.26 0.17,0.52 0.22,0.79 0.05,0.27 0.07,0.54 0.07,0.8 0,0.37 -0.04,0.73 -0.12,1.08 -0.08,0.35 -0.2,0.67 -0.35,0.96 -0.16,0.3 -0.35,0.55 -0.58,0.77 -0.23,0.22 -0.49,0.39 -0.79,0.51 -0.3,0.12 -0.63,0.19 -0.99,0.19 -0.3,-0 -0.58,-0.05 -0.84,-0.14 -0.26,-0.09 -0.49,-0.23 -0.69,-0.39 -0.21,-0.17 -0.39,-0.36 -0.55,-0.58 -0.16,-0.22 -0.29,-0.46 -0.39,-0.71 -0.11,-0.25 -0.19,-0.51 -0.24,-0.78 -0.05,-0.27 -0.08,-0.53 -0.08,-0.79 0,-0.34 0.04,-0.69 0.11,-1.02 0.07,-0.34 0.18,-0.66 0.33,-0.96 0.15,-0.3 0.33,-0.57 0.56,-0.8 0.23,-0.23 0.49,-0.41 0.8,-0.55 0.31,-0.13 0.66,-0.2 1.05,-0.2z"/>
    <path class="fil4" d="M210.28 26.99c-0.14,0.05 -0.3,0.1 -0.49,0.14 -0.19,0.04 -0.39,0.07 -0.6,0.1 -0.21,0.03 -0.42,0.04 -0.63,0.04 -0.64,0 -1.2,-0.14 -1.66,-0.42 -0.47,-0.28 -0.83,-0.7 -1.09,-1.26 -0.26,-0.56 -0.39,-1.25 -0.39,-2.07 0,-0.67 0.09,-1.24 0.25,-1.72 0.16,-0.48 0.39,-0.88 0.67,-1.19 0.29,-0.31 0.62,-0.54 1,-0.69 0.38,-0.15 0.78,-0.22 1.2,-0.22 0.38,0 0.7,0.04 0.99,0.11 0.28,0.07 0.53,0.15 0.72,0.25l0.49 -2.19c-0.11,-0.06 -0.28,-0.13 -0.5,-0.19 -0.22,-0.06 -0.48,-0.12 -0.8,-0.17 -0.31,-0.04 -0.67,-0.07 -1.07,-0.07 -0.61,0 -1.2,0.08 -1.77,0.24 -0.57,0.16 -1.1,0.41 -1.58,0.74 -0.49,0.33 -0.91,0.74 -1.28,1.24 -0.37,0.5 -0.65,1.08 -0.86,1.75 -0.2,0.67 -0.31,1.43 -0.31,2.28 0,0.66 0.07,1.28 0.21,1.87 0.14,0.59 0.36,1.13 0.65,1.62 0.29,0.49 0.66,0.91 1.1,1.27 0.44,0.36 0.96,0.64 1.55,0.83 0.59,0.2 1.27,0.3 2.02,0.3 0.39,-0 0.75,-0.02 1.07,-0.06 0.33,-0.04 0.61,-0.09 0.85,-0.15 0.24,-0.06 0.43,-0.12 0.57,-0.18l-0.34 -2.17zm7.8 -3.17c0.37,-0.15 0.7,-0.36 0.99,-0.64 0.29,-0.28 0.53,-0.61 0.7,-1 0.17,-0.39 0.26,-0.81 0.27,-1.28 -0,-0.54 -0.08,-1 -0.24,-1.38 -0.15,-0.38 -0.36,-0.7 -0.62,-0.95 -0.26,-0.25 -0.56,-0.45 -0.88,-0.6 -0.33,-0.15 -0.67,-0.26 -1.02,-0.33 -0.35,-0.07 -0.69,-0.11 -1.02,-0.14 -0.33,-0.02 -0.63,-0.03 -0.89,-0.03 -0.41,0 -0.81,0.01 -1.19,0.03 -0.39,0.02 -0.75,0.05 -1.09,0.09 -0.34,0.04 -0.65,0.08 -0.92,0.13l0 11.67 2.68 0 0 -4.61 0.52 0c0.3,-0.01 0.55,0.05 0.75,0.15 0.2,0.1 0.37,0.29 0.5,0.56 0.13,0.27 0.24,0.64 0.32,1.11 0.09,0.47 0.18,0.89 0.27,1.27 0.09,0.38 0.18,0.7 0.26,0.96 0.08,0.26 0.15,0.45 0.2,0.56l2.79 0c-0.06,-0.12 -0.12,-0.3 -0.19,-0.53 -0.07,-0.24 -0.14,-0.51 -0.22,-0.82 -0.07,-0.31 -0.15,-0.63 -0.23,-0.97 -0.08,-0.34 -0.16,-0.67 -0.23,-0.99 -0.09,-0.38 -0.2,-0.71 -0.33,-1.01 -0.13,-0.29 -0.29,-0.54 -0.48,-0.75 -0.19,-0.2 -0.42,-0.36 -0.69,-0.47l0 -0.06zm-3.23 -1.01l0 -3.2c0.08,-0.02 0.19,-0.04 0.33,-0.06 0.15,-0.01 0.32,-0.02 0.54,-0.02 0.16,-0 0.33,0.02 0.52,0.06 0.19,0.04 0.36,0.12 0.53,0.24 0.17,0.11 0.31,0.28 0.41,0.49 0.11,0.21 0.16,0.48 0.17,0.82 0,0.32 -0.07,0.61 -0.21,0.86 -0.14,0.25 -0.34,0.44 -0.61,0.59 -0.27,0.14 -0.59,0.22 -0.97,0.22l-0.7 0zm13.71 4.35l-4.03 0 0 -2.76 3.6 0 0 -2.21 -3.6 0 0 -2.37 3.8 0 0 -2.25 -6.49 0 0 11.84 6.72 0 0 -2.25zm7.37 -9.59l-3.42 0 -3.12 11.84 2.73 0 0.64 -2.76 2.73 0 0.69 2.76 2.79 0 -3.03 -11.84zm-2.85 7.04l0.54 -2.37c0.04,-0.17 0.07,-0.36 0.11,-0.57 0.04,-0.21 0.08,-0.43 0.13,-0.65 0.04,-0.23 0.09,-0.45 0.13,-0.66 0.04,-0.22 0.08,-0.42 0.12,-0.6l0.03 0c0.04,0.18 0.08,0.38 0.12,0.59 0.04,0.21 0.09,0.43 0.13,0.65 0.04,0.22 0.09,0.44 0.13,0.65 0.04,0.21 0.08,0.41 0.12,0.58l0.52 2.37 -2.08 0zm14.1 -7.04l-8.09 0 0 2.36 2.68 0 0 9.48 2.7 0 0 -9.48 2.71 0 0 -2.36zm1.33 11.84l2.7 0 0 -11.84 -2.7 0 0 11.84zm10.77 -11.84l-1.12 4.95c-0.15,0.66 -0.3,1.34 -0.44,2.03 -0.14,0.69 -0.26,1.38 -0.37,2.09l-0.05 0c-0.11,-0.71 -0.25,-1.41 -0.39,-2.1 -0.14,-0.69 -0.29,-1.36 -0.44,-2.03l-1.12 -4.94 -2.97 0 3.29 11.84 3.11 0 3.4 -11.84 -2.91 0zm8.51 -0.17c-0.64,0 -1.22,0.11 -1.75,0.31 -0.53,0.21 -0.99,0.5 -1.4,0.88 -0.41,0.38 -0.75,0.82 -1.03,1.33 -0.28,0.51 -0.49,1.07 -0.63,1.68 -0.14,0.61 -0.22,1.25 -0.22,1.92 0,0.65 0.06,1.28 0.19,1.88 0.13,0.6 0.32,1.15 0.58,1.66 0.26,0.51 0.58,0.95 0.97,1.33 0.39,0.38 0.84,0.67 1.36,0.88 0.52,0.21 1.11,0.32 1.76,0.32 0.75,0 1.43,-0.13 2.04,-0.4 0.61,-0.26 1.14,-0.66 1.58,-1.18 0.44,-0.52 0.78,-1.17 1.02,-1.96 0.24,-0.78 0.36,-1.68 0.36,-2.71 0,-0.48 -0.04,-0.96 -0.12,-1.44 -0.08,-0.48 -0.2,-0.93 -0.37,-1.38 -0.17,-0.44 -0.38,-0.85 -0.64,-1.23 -0.26,-0.38 -0.56,-0.7 -0.92,-0.99 -0.36,-0.28 -0.77,-0.5 -1.23,-0.66 -0.46,-0.16 -0.98,-0.24 -1.55,-0.24zm-0.08 2.22c0.34,0 0.65,0.1 0.9,0.3 0.26,0.2 0.47,0.47 0.65,0.82 0.17,0.35 0.3,0.75 0.39,1.21 0.08,0.46 0.13,0.94 0.13,1.47 0,0.58 -0.04,1.11 -0.13,1.59 -0.09,0.48 -0.22,0.9 -0.39,1.25 -0.17,0.35 -0.39,0.62 -0.65,0.81 -0.26,0.19 -0.56,0.29 -0.9,0.29 -0.34,-0 -0.64,-0.1 -0.91,-0.29 -0.27,-0.19 -0.49,-0.46 -0.67,-0.81 -0.18,-0.35 -0.32,-0.76 -0.41,-1.23 -0.09,-0.47 -0.14,-1 -0.13,-1.56 0,-0.51 0.04,-1 0.13,-1.46 0.09,-0.46 0.21,-0.87 0.39,-1.23 0.18,-0.36 0.4,-0.64 0.66,-0.84 0.27,-0.21 0.58,-0.31 0.94,-0.31z"/>
   </g>
  </g>
 </g>
</svg>
