<?xml version="1.0" encoding="UTF-8"?>
<!DOCTYPE svg PUBLIC "-//W3C//DTD SVG 1.1//EN" "http://www.w3.org/Graphics/SVG/1.1/DTD/svg11.dtd">
<!-- Creator: CorelDRAW 2020 (64-Bit) -->
<svg xmlns="http://www.w3.org/2000/svg" xml:space="preserve" width="210mm" height="297mm" version="1.1" style="shape-rendering:geometricPrecision; text-rendering:geometricPrecision; image-rendering:optimizeQuality; fill-rule:evenodd; clip-rule:evenodd"
viewBox="0 0 21000 29700"
 xmlns:xlink="http://www.w3.org/1999/xlink"
 xmlns:xodm="http://www.corel.com/coreldraw/odm/2003">
 <defs>
  <style type="text/css">
   <![CDATA[
    .fil0 {fill:#FEFEFE}
    .fil3 {fill:#FFF212}
    .fil1 {fill:#00AFEF}
    .fil2 {fill:#00A859}
   ]]>
  </style>
 </defs>
 <g id="Capa_x0020_1">
  <metadata id="CorelCorpID_0Corel-Layer"/>
  <g id="LOGO.cdr">
   <g>
    <path class="fil0" d="M10564.84 11903.81c-122.99,-156.41 -179.77,-364.51 -138.38,-582.5 75.3,-396.59 456.03,-687.35 858.44,-655.71 435.09,34.22 733.51,424.72 652.09,853.52 -6.62,34.85 -15.58,68.89 -26.73,101.95 263.31,-202.49 534.94,-347.8 904.9,-388.79 286.71,-31.76 620.12,110.15 800.62,349.89 248.33,-302.05 665.37,-522.67 1067.32,-521.1 19.44,-229.2 38.88,-458.39 58.32,-687.6 15.73,-185.5 167.74,-327.63 353.88,-330.91 188.83,-3.31 377.65,-6.61 566.48,-9.93 107.34,-1.89 200.47,38.14 272.97,117.32 11.42,12.47 21.82,25.37 31.2,38.65 168.39,-153.31 401.92,-233.21 640.87,-199.97 422.8,58.84 711.33,450.54 630.46,871.62 -8.7,45.32 -21.32,88.99 -37.43,130.74 141.2,-1.4 282.42,-2.79 423.64,-4.2 74.76,-0.74 144.63,21.12 202.81,59.48 120.5,-29.85 245.82,-41.34 367.36,-36.2 635.45,26.82 884.43,516.07 770.93,1087.78 -95.43,555.43 -190.88,1110.86 -286.31,1666.3 -31.2,181.55 -191.34,309.48 -375.28,299.8 -181.86,-9.56 -363.73,-19.14 -545.59,-28.71 -94.12,-4.95 -174.75,-41.23 -238.67,-107.22 -60.89,46.22 -136.87,73.26 -219.01,73.26 -195.26,0 -390.52,0 -585.79,0 -61.23,0 -117.65,-13.58 -167.98,-40.11 -55.09,37.75 -121.32,60.42 -192.95,62.87l-671.93 22.97c-47.81,1.64 -93.03,-5.12 -134.93,-19.98 -228.32,128.13 -476.27,155.71 -672.6,60.29 -161.13,87.88 -345.03,137.15 -525.16,146.55 -94.99,4.95 -186.98,-0.84 -274.64,-16.64 0.41,6.49 0.67,13.02 0.75,19.6 2.22,179.18 -123.88,330.57 -300.51,360.8 -625.11,106.98 -1249.29,278.97 -1851.9,475.09 -2558.95,832.86 -5407.92,2327.49 -7440.76,4000.02 -288.59,237.45 -623.07,454.55 -981.82,567.59 -315.27,99.32 -648.19,115.91 -959.04,-9.44 -656.5,-264.73 -897.95,-1012.45 -973.25,-1656.58 -58.81,-503.07 106.37,-1220.82 310.67,-1909.26 -45.29,-201.38 -48.71,-223.52 -81.96,-340.64 -159.85,-662.85 -397.38,-1598.3 -231.21,-2269.61 120.86,-488.29 514.95,-966.39 953.61,-1207.06 106.14,-58.23 223.36,-61.08 332.2,-8.06 108.84,53.02 178.86,147.06 198.44,266.53 187.37,1142.86 374.73,2285.72 562.08,3428.58 6.22,-3.06 11.76,-5.89 16.25,-8.23 215.08,-112.15 427.94,-228.52 641.92,-342.79 17.02,-9.08 32.12,-15.72 50.32,-22.13 20.49,-7.2 40.87,-13.28 61.06,-18.25l-121.8 -1061.77c-8.97,-78.15 6.35,-153.06 41.81,-217 -213.24,-149.03 -329.18,-415.28 -275.18,-703.95 72.8,-389.22 432.5,-695.14 830.29,-695.14 395.21,0 684.43,298.9 693.56,669.59 141.37,-68.53 282.73,-137.06 424.09,-205.61 79.75,-38.67 163.85,-47.4 244.91,-26.35 67.12,-55.62 137.48,-106.97 214.34,-149.46 201.45,-111.33 404.74,-153.79 604.25,-115.27 173.76,-193.44 405.7,-343.77 651.55,-396.12 245.35,-52.24 498.72,-11.4 700.62,105.49 -14.12,-170.79 89.68,-324.5 253.68,-375.11 169.46,-52.31 338.91,-104.6 508.39,-156.91 51.17,-15.79 101.82,-20.59 151.14,-14.48 157.57,-111.65 329.75,-184.01 549.91,-212.11 150.21,-19.15 300.09,1.97 437.98,65.02 77.43,35.41 147.6,82.4 210.89,138.32l-1.72 -70.85c-1.95,-80.88 22.15,-156.38 65.53,-217.87z"/>
    <g>
     <path class="fil1" d="M1915.32 13541.65c-130.37,526.71 34.03,1278.22 231.73,2097.99 211.23,-703.39 383.72,-1490.62 494.74,-2411.13 45.85,423.24 86.48,855.11 31.31,1446.68l2.91 82.85 0.03 0.81 39.09 1114.34c7.21,171.92 14.41,337.18 20.94,486.56 5.21,119.26 17.39,227.24 38.15,325.14 18.87,82.04 42.15,156.45 69.99,222.96 56.23,127.98 136.5,233.66 246.95,321.42 132.15,87.51 300,113.14 505.24,74 59.77,-13.89 121.24,-33.06 183.87,-56.33l558.29 -275.47c119.86,-68.5 237.39,-138.74 348.54,-202.61l-66.31 -753.47c-6.69,-123.73 -73.94,-150.6 -181.62,-112.72 -215.02,114.81 -430.03,229.62 -645.05,344.44 -318.13,163.16 -504.38,93.59 -538.58,-244.24 -187.88,-1146.07 -375.77,-2292.13 -563.65,-3438.19 -352.28,193.27 -680.71,589.72 -776.57,976.97zm2957.61 3124.29l-255.29 -2225.54 594.49 -310.88 276.58 2234.4 -615.78 302.02zm644.57 -2713.8l311.98 2239.93 594.44 -264.1 -171.44 -1632.58c71.18,-73.61 158.13,-135.58 248.66,-196.65 96.94,-65.39 268.7,-111.85 292.47,119.77l136.28 1474.35 388.57 -145.18c58.21,-23.16 116.45,-46.16 174.81,-69.06l-136.34 -1606.59c53.43,-69.97 140.05,-165.64 222.87,-190.19 123.7,-36.68 269.79,-22.41 275.7,164.99l102.49 1451.86c198.15,-75.92 399.65,-152.41 607.3,-231.51 -45.43,-545.12 -90.85,-1090.26 -136.28,-1635.39 -7.32,-350.86 -362.9,-500.35 -665.63,-435.9 -258.06,54.95 -490.24,275.62 -598.09,485.46 -208.55,-144.8 -388.9,-104.77 -558.13,-11.25 -149.78,82.78 -323.58,263.16 -451.6,376.73 -8.26,-64.01 -16.53,-128.03 -24.78,-192.04 -204.43,99.12 -408.85,198.23 -613.28,297.35zm3501.4 1803.75c-89.97,-1012.59 -179.92,-2025.18 -269.89,-3037.78 169.46,-52.3 338.93,-104.6 508.39,-156.9 8.37,46.03 16.74,92.04 25.11,138.07 221.96,-230.06 380.83,-321.59 615.08,-351.48 492.91,-62.89 707.64,636.91 728.07,1066.99 17.16,361.44 -119.51,856.11 -351.86,1127.58 -231.16,55.28 -464.44,117.12 -697.99,185.6 -45.49,-19.19 -92.77,-46.2 -142.67,-83 31.38,288.72 62.76,577.43 94.15,866.14 -169.46,81.6 -338.93,163.19 -508.39,244.78zm1896.83 -1351.55l-55.33 -2291.4 648.35 -143.71 29.64 2331.37c-203.02,28.81 -411.1,63.38 -622.66,103.74zm946.84 -2272.39c67.55,128.06 135.08,256.11 202.63,384.17 126.66,-128.04 272.61,-302.14 455.93,-308.18 183.78,-6.05 246.69,109.82 249.07,211.09 1.66,70.67 -35.34,151.4 -97.1,185.73l-823.34 457.86c-34.06,17.31 -48.49,33.48 -63.97,64.31 -163.28,323.46 -182.32,800.94 93.67,993.37 256.92,179.15 775.35,28.14 966.73,-219.52 79.3,242.12 314.56,188.7 607.89,25.32 2.82,-101.31 5.64,-202.63 8.46,-303.94 -143.9,24.28 -178.39,-60.86 -164.65,-194.2 29.55,-488.29 88.66,-975.69 88.66,-1464.87 0,-242.56 -346.92,-391.98 -531.92,-371.5 -413.43,45.81 -678.27,263.14 -992.06,540.36zm550.22 1598.19c288.49,-29.19 415.24,-408.23 381.99,-828.9 -185.29,126.34 -370.57,252.69 -555.86,379.04 -11.2,9.76 -17.49,27.08 -22.18,43.99 -37.61,124.41 -5.6,426.28 196.05,405.87zm2594.12 -2213.06c31.47,-371.03 62.94,-742.04 94.41,-1113.07 188.83,-3.31 377.65,-6.62 566.48,-9.93 -102.69,968.97 -205.39,1937.95 -308.08,2906.92 -16.14,90.75 7.29,150.12 94.41,159.01 -18.22,77.86 -36.44,155.7 -54.66,233.55 -236.26,148.51 -419.44,118.76 -491.95,-99.37 -291.52,395.88 -1202.31,435.87 -1301.91,-303.12 -66.44,-492.87 -30.01,-1075.61 278.27,-1465.88 240.61,-304.61 773.52,-543.31 1123.03,-308.11zm-797.8 944.95c23.18,-212.4 289.35,-600.51 733.68,-519.39 -15.74,309.94 -31.47,619.89 -47.21,929.83 -43.01,286.4 -190.44,456.33 -392.28,457.64 -168.76,1.08 -289.31,-179.34 -301.45,-406.8 -8.15,-152.52 -9.65,-306.41 7.26,-461.28zm1459.28 1223.66l338.84 -2302.95 666.19 -17.23 -333.1 2297.21 -671.93 22.97zm1045.23 -45.94c111.03,-761.91 222.06,-1523.81 333.09,-2285.72 193.34,-1.92 386.7,-3.83 580.04,-5.75 5.75,59.35 11.49,118.69 17.24,178.04 141.88,-117.29 348.9,-162.88 534.1,-155.07 439.56,18.56 493.9,348.41 430.72,660.44 -95.72,557.07 -191.44,1114.16 -287.15,1671.22 -181.86,-9.56 -363.73,-19.14 -545.59,-28.7 76.58,-570.48 153.15,-1140.94 229.72,-1711.42 -279.49,-65.09 -515.97,253.07 -551.98,503.9 -65.84,458.44 -106.55,784.45 -154.4,1173.06 -195.27,0 -390.53,0 -585.79,0zm-11858.23 -412.72c220.97,0 366.59,179.12 325.26,400.09 -41.34,220.97 -253.96,400.1 -474.93,400.1 -220.97,0 -366.59,-179.13 -325.26,-400.1 41.34,-220.97 253.96,-400.09 474.93,-400.09zm6400.85 -2201.03c220.97,17.38 366.59,207.96 325.25,425.67 -41.33,217.72 -253.96,380.12 -474.93,362.74 -220.97,-17.38 -366.58,-207.96 -325.25,-425.68 41.33,-217.71 253.96,-380.11 474.93,-362.73zm5300.43 -679.3c220.97,30.75 366.58,230.15 325.25,445.35 -41.33,215.22 -253.96,364.75 -474.93,334.01 -220.97,-30.76 -366.58,-230.15 -325.25,-445.36 41.33,-215.21 253.96,-364.75 474.93,-334zm-6894.99 2614.29c-154.77,5.58 -237.42,83.46 -332.62,185.31 17.43,291.44 34.85,582.87 52.27,874.31 15.11,117.03 133.25,290.48 308.86,280.35 171.78,-9.92 300.02,-161.3 304.1,-270.84 11.33,-304.09 -7.36,-563.55 -33.26,-798.28 -19,-172.13 -145.22,-276.42 -299.35,-270.85z"/>
     <path class="fil2" d="M4239.01 17907.71c1461.73,-1030.38 3075.4,-1900.05 4586.27,-2536.61l32.23 555.58c-1648.52,792.51 -3296.78,1789.55 -4606.2,2866.88 -1182.5,972.92 -2143.9,690.86 -2325.34,-861.24 -89.27,-763.65 450.8,-2214.63 750.04,-3174.28 -110.58,1201.63 -563.96,2735.02 25.08,3457.26 329.78,404.35 1161.6,-42.31 1537.92,-307.59zm5367.78 -2848.7c1697.84,-639.73 3198.22,-950.01 4105.89,-817.73 -1142.59,195.52 -2578.58,665.44 -4058.86,1318.38l-47.03 -500.65z"/>
     <path class="fil3" d="M13712.68 14241.28c-962.01,-140.2 -2544.2,19.63 -4136.98,486.72l31.09 331.01c1697.84,-639.73 3198.22,-950.01 4105.89,-817.73zm-4910.11 738.26c-79.34,28.45 -158.47,57.63 -237.28,87.64 -1253.35,477.4 -2283.91,859.67 -3692.36,1598.76 -551.49,289.4 -1356.33,900.96 -1781.37,563.66 -240,-190.46 -337.81,-465.41 -355.49,-869.85 -20.64,-472.33 -48.15,-1103.58 -60.06,-1601.71 -110.58,1201.63 -563.96,2735.02 25.08,3457.26 329.78,404.35 1161.6,-42.31 1537.92,-307.59 1461.73,-1030.38 3075.4,-1900.05 4586.27,-2536.61l-22.71 -391.56z"/>
    </g>
   </g>
   <path class="fil0" d="M19170.44 13806.84c169.61,0 307.12,137.51 307.12,307.13 0,169.61 -137.51,307.12 -307.12,307.12 -169.62,0 -307.13,-137.51 -307.13,-307.12 0,-169.62 137.51,-307.13 307.13,-307.13zm0 73.9c128.8,0 233.23,104.42 233.23,233.23 0,128.8 -104.43,233.22 -233.23,233.22 -128.81,0 -233.23,-104.42 -233.23,-233.22 0,-128.81 104.42,-233.23 233.23,-233.23zm-49.53 211.48l42.32 0c27.41,0 44.49,-1.19 51.35,-3.5 6.78,-2.29 12.18,-6.33 16.01,-12 3.89,-5.65 5.8,-12.77 5.8,-21.29 0,-9.54 -2.56,-17.2 -7.64,-23.12 -5.08,-5.87 -12.27,-9.56 -21.5,-11.08 -4.67,-0.65 -18.57,-0.98 -41.71,-0.98l-44.63 0 0 71.97zm-57.33 163.31l0 -283.13 120.41 0c30.26,0 52.27,2.56 65.97,7.64 13.78,5.08 24.71,14.11 32.97,27.09 8.23,13.04 12.38,27.88 12.38,44.61 0,21.3 -6.2,38.82 -18.65,52.66 -12.45,13.84 -31.04,22.55 -55.81,26.17 12.32,7.19 22.46,15.09 30.44,23.73 8.03,8.64 18.84,24 32.41,46.01l34.54 55.22 -68.34 0 -40.99 -61.82c-14.7,-21.94 -24.78,-35.79 -30.26,-41.52 -5.41,-5.67 -11.14,-9.62 -17.2,-11.73 -6.12,-2.11 -15.75,-3.15 -28.93,-3.15l-11.61 0 0 118.22 -57.33 0z"/>
  </g>
 </g>
</svg>
